<svg id="svg" version="1.1" xmlns="http://www.w3.org/2000/svg" xmlns:xlink="http://www.w3.org/1999/xlink" width="400" height="400" viewBox="0, 0, 400,400"><g id="svgg"><path id="path0" d="M225.083 122.109 C 224.625 122.135,222.600 122.237,220.583 122.334 C 207.672 122.957,190.687 124.887,178.833 127.079 C 178.146 127.206,176.683 127.471,175.583 127.668 C 173.182 128.098,167.696 129.185,165.500 129.667 C 164.629 129.858,163.579 130.082,163.167 130.164 C 160.335 130.729,150.648 133.104,146.500 134.250 C 82.794 151.860,43.415 180.200,50.622 203.250 C 53.601 212.777,65.174 219.339,84.417 222.411 C 90.349 223.358,94.180 223.783,101.250 224.280 C 106.159 224.625,125.762 224.773,131.750 224.510 C 140.050 224.146,145.744 223.818,151.014 223.402 L 152.445 223.288 153.122 224.519 C 160.649 238.204,175.371 248.200,191.250 250.410 C 227.736 255.487,257.848 222.216,249.217 186.363 C 248.989 185.416,248.845 184.599,248.898 184.546 C 249.158 184.287,260.699 185.329,264.917 185.993 C 268.725 186.593,269.816 186.793,274.083 187.673 C 304.994 194.052,301.891 213.189,266.740 232.955 C 262.024 235.607,251.083 241.167,250.580 241.167 C 250.554 241.167,249.907 241.458,249.142 241.814 C 246.992 242.815,240.233 245.671,237.083 246.910 C 235.525 247.523,233.912 248.163,233.500 248.332 C 229.487 249.976,219.787 253.343,211.000 256.142 C 209.559 256.601,202.044 258.839,201.250 259.045 C 201.067 259.092,199.533 259.519,197.841 259.993 C 188.479 262.617,175.537 265.616,165.833 267.409 C 159.656 268.551,159.220 268.629,157.333 268.919 C 156.371 269.068,155.208 269.258,154.750 269.343 C 153.837 269.511,148.082 270.325,144.917 270.733 C 143.067 270.971,140.854 271.233,137.083 271.658 C 134.947 271.899,127.916 272.497,127.011 272.515 L 126.250 272.530 127.083 272.767 C 129.723 273.517,132.178 274.094,135.833 274.822 C 154.234 278.486,182.599 279.080,207.750 276.328 C 208.575 276.238,210.637 276.014,212.333 275.829 C 214.029 275.645,216.017 275.418,216.750 275.324 C 220.855 274.798,223.215 274.469,226.917 273.908 C 229.293 273.547,237.442 272.196,238.333 272.014 C 238.746 271.930,239.721 271.744,240.500 271.599 C 242.580 271.213,247.511 270.225,249.333 269.829 C 250.204 269.640,251.217 269.423,251.583 269.347 C 267.627 266.046,291.731 258.541,303.250 253.261 C 303.525 253.135,304.875 252.530,306.250 251.917 C 308.691 250.829,314.670 247.894,316.500 246.885 C 317.004 246.607,317.867 246.133,318.417 245.832 C 334.158 237.216,345.447 226.059,348.773 215.833 C 354.703 197.594,343.006 185.418,314.917 180.590 C 304.091 178.729,296.979 178.250,280.167 178.250 C 271.635 178.250,265.977 178.323,263.500 178.466 C 258.070 178.778,251.514 179.201,248.498 179.434 L 247.079 179.543 246.680 178.563 C 243.341 170.369,237.366 162.742,229.581 156.737 C 216.650 146.761,197.557 143.802,181.667 149.310 C 154.338 158.783,139.814 188.287,149.083 215.500 C 149.411 216.463,149.695 217.321,149.715 217.409 C 149.765 217.632,149.168 217.588,143.000 216.911 C 139.322 216.507,135.364 215.958,132.833 215.500 C 118.250 212.859,110.089 209.744,105.194 204.951 C 94.810 194.782,107.517 178.852,140.083 161.211 C 148.120 156.858,162.700 150.184,171.500 146.830 C 171.912 146.672,173.375 146.112,174.750 145.585 C 193.390 138.434,213.847 132.674,234.500 128.761 C 245.048 126.762,258.349 125.168,268.647 124.668 C 270.424 124.582,271.904 124.484,271.937 124.452 C 272.088 124.301,262.652 123.212,257.250 122.756 C 249.661 122.116,231.313 121.746,225.083 122.109 " stroke="none" fill="#fbfbfb" fill-rule="evenodd"></path><path id="path1" d="M191.500 0.082 C 191.362 0.114,189.787 0.223,188.000 0.324 C 182.111 0.658,174.771 1.430,169.667 2.253 C 168.887 2.379,167.650 2.567,166.917 2.671 C 166.183 2.775,165.058 2.963,164.417 3.089 C 163.775 3.214,162.612 3.440,161.833 3.590 C 161.054 3.740,159.929 3.965,159.333 4.090 C 158.737 4.215,157.650 4.442,156.917 4.595 C 156.183 4.748,155.251 4.977,154.845 5.103 C 154.439 5.230,153.958 5.333,153.777 5.333 C 153.595 5.333,153.064 5.441,152.598 5.572 C 152.132 5.704,151.262 5.935,150.667 6.086 C 150.071 6.237,149.208 6.462,148.750 6.587 C 148.292 6.711,147.617 6.891,147.250 6.985 C 144.514 7.693,139.394 9.244,136.917 10.115 C 136.275 10.341,135.525 10.590,135.250 10.668 C 134.975 10.746,134.150 11.030,133.417 11.298 C 132.683 11.566,131.446 12.011,130.667 12.286 C 129.887 12.562,128.856 12.947,128.375 13.144 C 127.894 13.340,127.106 13.654,126.625 13.842 C 126.144 14.031,125.600 14.248,125.417 14.325 C 125.233 14.402,123.771 15.011,122.167 15.678 C 115.795 18.329,105.848 23.210,101.917 25.616 C 101.733 25.728,101.471 25.876,101.333 25.944 C 100.384 26.414,94.853 29.732,93.167 30.844 C 92.479 31.297,91.819 31.714,91.700 31.772 C 91.486 31.874,87.874 34.277,86.801 35.030 C 86.498 35.243,86.225 35.473,86.194 35.542 C 86.164 35.610,86.077 35.667,86.001 35.667 C 85.881 35.667,84.275 36.766,81.625 38.664 C 81.190 38.976,80.833 39.291,80.833 39.365 C 80.833 39.439,80.759 39.500,80.669 39.500 C 80.525 39.500,78.558 40.905,78.333 41.168 C 78.287 41.222,77.762 41.634,77.167 42.083 C 76.571 42.533,76.046 42.943,76.000 42.995 C 75.954 43.046,74.979 43.835,73.833 44.748 C 72.688 45.661,71.667 46.485,71.566 46.579 C 71.465 46.673,70.987 47.087,70.504 47.500 C 69.537 48.325,69.472 48.382,68.083 49.583 C 67.554 50.042,67.037 50.494,66.935 50.589 C 66.833 50.684,65.813 51.613,64.667 52.654 C 61.983 55.092,55.092 61.983,52.654 64.667 C 51.613 65.813,50.684 66.833,50.589 66.935 C 50.494 67.037,50.042 67.554,49.583 68.083 C 48.382 69.472,48.325 69.537,47.500 70.504 C 47.087 70.987,46.673 71.465,46.579 71.566 C 46.485 71.667,45.661 72.688,44.748 73.833 C 43.835 74.979,43.046 75.954,42.995 76.000 C 42.943 76.046,42.533 76.571,42.083 77.167 C 41.634 77.762,41.222 78.287,41.168 78.333 C 40.905 78.558,39.500 80.525,39.500 80.669 C 39.500 80.759,39.439 80.833,39.365 80.833 C 39.291 80.833,38.976 81.190,38.664 81.625 C 36.766 84.275,35.667 85.881,35.667 86.001 C 35.667 86.077,35.610 86.164,35.542 86.194 C 35.473 86.225,35.243 86.498,35.030 86.801 C 34.277 87.874,31.874 91.486,31.772 91.700 C 31.714 91.819,31.297 92.479,30.844 93.167 C 29.732 94.853,26.414 100.384,25.944 101.333 C 25.876 101.471,25.728 101.733,25.616 101.917 C 23.210 105.848,18.329 115.795,15.678 122.167 C 15.011 123.771,14.402 125.233,14.325 125.417 C 14.248 125.600,14.031 126.144,13.842 126.625 C 13.654 127.106,13.340 127.894,13.144 128.375 C 12.947 128.856,12.562 129.887,12.286 130.667 C 12.011 131.446,11.566 132.683,11.298 133.417 C 11.030 134.150,10.746 134.975,10.668 135.250 C 10.590 135.525,10.341 136.275,10.115 136.917 C 9.244 139.394,7.693 144.514,6.985 147.250 C 6.891 147.617,6.711 148.292,6.587 148.750 C 6.462 149.208,6.237 150.071,6.086 150.667 C 5.935 151.262,5.704 152.132,5.572 152.598 C 5.441 153.064,5.333 153.595,5.333 153.777 C 5.333 153.958,5.230 154.439,5.103 154.845 C 4.977 155.251,4.748 156.183,4.595 156.917 C 4.442 157.650,4.215 158.737,4.090 159.333 C 3.965 159.929,3.740 161.054,3.590 161.833 C 3.440 162.612,3.214 163.775,3.089 164.417 C 2.963 165.058,2.775 166.183,2.671 166.917 C 2.567 167.650,2.379 168.887,2.253 169.667 C -0.710 188.045,-0.710 211.955,2.253 230.333 C 2.379 231.112,2.567 232.350,2.671 233.083 C 2.775 233.817,2.963 234.942,3.089 235.583 C 3.214 236.225,3.440 237.387,3.590 238.167 C 3.740 238.946,3.965 240.071,4.090 240.667 C 4.215 241.262,4.442 242.350,4.595 243.083 C 4.748 243.817,4.977 244.749,5.103 245.155 C 5.230 245.561,5.333 246.042,5.333 246.223 C 5.333 246.405,5.441 246.936,5.572 247.402 C 5.704 247.868,5.935 248.737,6.086 249.333 C 6.237 249.929,6.462 250.792,6.587 251.250 C 6.711 251.708,6.891 252.383,6.985 252.750 C 7.693 255.486,9.244 260.606,10.115 263.083 C 10.341 263.725,10.589 264.475,10.666 264.750 C 10.743 265.025,10.970 265.700,11.171 266.250 C 11.371 266.800,11.834 268.075,12.199 269.083 C 12.564 270.092,13.006 271.273,13.181 271.708 C 13.357 272.144,13.654 272.894,13.842 273.375 C 14.031 273.856,14.249 274.400,14.328 274.583 C 14.407 274.767,14.708 275.517,14.997 276.250 C 15.287 276.983,15.627 277.813,15.754 278.093 C 15.881 278.373,16.254 279.231,16.583 280.000 C 18.775 285.122,23.624 294.828,25.616 298.083 C 25.728 298.267,25.876 298.529,25.944 298.667 C 26.414 299.616,29.732 305.147,30.844 306.833 C 31.297 307.521,31.718 308.196,31.779 308.333 C 32.056 308.958,38.500 318.271,39.112 318.931 C 39.325 319.162,39.500 319.383,39.500 319.423 C 39.500 319.502,41.007 321.529,41.168 321.667 C 41.222 321.712,41.633 322.237,42.082 322.833 C 42.824 323.817,44.797 326.297,45.000 326.500 C 45.046 326.546,45.382 326.958,45.747 327.417 C 46.111 327.875,46.486 328.333,46.580 328.434 C 46.673 328.535,47.087 329.013,47.500 329.496 C 48.325 330.463,48.382 330.528,49.583 331.917 C 50.042 332.446,50.495 332.963,50.590 333.065 C 50.685 333.167,51.510 334.075,52.423 335.083 C 54.227 337.074,57.808 340.776,59.895 342.807 C 60.616 343.509,61.629 344.496,62.145 345.001 C 63.065 345.901,66.175 348.749,67.084 349.524 C 67.337 349.740,67.628 349.996,67.731 350.094 C 68.034 350.384,69.540 351.694,70.494 352.500 C 70.983 352.912,71.465 353.327,71.566 353.420 C 71.667 353.514,72.125 353.885,72.583 354.245 C 73.042 354.605,73.492 354.982,73.583 355.083 C 73.675 355.183,74.650 355.964,75.750 356.818 C 76.850 357.672,78.012 358.579,78.333 358.835 C 79.676 359.903,80.513 360.500,80.668 360.500 C 80.759 360.500,80.833 360.561,80.833 360.635 C 80.833 360.766,81.223 361.064,83.583 362.734 C 86.380 364.714,91.460 368.126,93.522 369.412 C 94.106 369.776,95.102 370.398,95.736 370.794 C 96.370 371.191,97.832 372.055,98.984 372.716 C 100.136 373.376,101.230 374.007,101.415 374.118 C 101.599 374.229,101.862 374.374,102.000 374.440 C 102.138 374.505,102.513 374.721,102.833 374.919 C 104.204 375.766,113.185 380.368,115.254 381.284 C 115.710 381.486,116.796 381.978,117.667 382.378 C 118.537 382.779,120.563 383.654,122.167 384.324 C 125.666 385.785,125.533 385.730,126.625 386.158 C 127.106 386.346,127.894 386.660,128.375 386.856 C 128.856 387.053,129.850 387.424,130.583 387.682 C 131.317 387.940,132.329 388.309,132.833 388.502 C 135.080 389.361,142.141 391.611,145.583 392.565 C 146.133 392.718,146.958 392.948,147.417 393.078 C 147.875 393.207,148.550 393.387,148.917 393.477 C 150.378 393.835,151.792 394.200,152.598 394.428 C 153.064 394.559,153.595 394.667,153.777 394.667 C 153.958 394.667,154.439 394.770,154.845 394.897 C 155.251 395.023,156.183 395.252,156.917 395.405 C 157.650 395.558,158.737 395.785,159.333 395.910 C 160.351 396.124,161.163 396.282,164.417 396.901 C 166.136 397.229,168.420 397.604,170.000 397.818 C 170.688 397.911,172.075 398.099,173.083 398.237 C 190.269 400.575,209.731 400.575,226.917 398.237 C 227.925 398.099,229.313 397.911,230.000 397.818 C 234.057 397.268,243.158 395.513,245.155 394.895 C 245.561 394.769,246.042 394.667,246.223 394.667 C 246.405 394.667,246.936 394.559,247.402 394.428 C 248.208 394.200,249.622 393.835,251.083 393.477 C 251.450 393.387,252.125 393.207,252.583 393.078 C 253.042 392.948,253.867 392.718,254.417 392.565 C 257.543 391.699,265.500 389.183,266.667 388.692 C 266.896 388.595,267.946 388.206,269.000 387.827 C 270.054 387.448,271.273 386.994,271.708 386.819 C 272.144 386.643,272.894 386.346,273.375 386.158 C 273.856 385.969,274.400 385.753,274.583 385.677 C 274.767 385.601,275.442 385.331,276.083 385.077 C 276.725 384.823,277.646 384.440,278.129 384.225 C 278.612 384.010,279.454 383.646,280.000 383.417 C 282.732 382.267,285.127 381.136,289.740 378.818 C 294.002 376.677,296.128 375.561,297.167 374.919 C 297.487 374.721,297.862 374.507,298.000 374.444 C 298.137 374.381,298.587 374.132,299.000 373.891 C 299.412 373.650,299.975 373.330,300.250 373.180 C 300.762 372.902,305.379 370.118,306.077 369.667 C 306.290 369.529,306.941 369.123,307.524 368.764 C 308.106 368.405,309.171 367.711,309.888 367.222 C 310.606 366.733,311.256 366.333,311.333 366.333 C 311.409 366.333,311.497 366.277,311.528 366.208 C 311.558 366.140,312.183 365.676,312.917 365.179 C 315.562 363.383,320.766 359.605,321.917 358.643 C 322.100 358.490,323.150 357.672,324.250 356.825 C 325.350 355.979,326.325 355.203,326.417 355.101 C 326.508 355.000,326.958 354.617,327.417 354.250 C 328.404 353.461,328.970 352.988,329.244 352.724 C 329.354 352.619,329.925 352.134,330.514 351.648 C 331.102 351.161,331.780 350.572,332.020 350.340 C 332.260 350.107,332.673 349.733,332.937 349.508 C 335.051 347.708,339.734 343.254,342.561 340.355 C 343.398 339.496,344.497 338.371,345.003 337.855 C 345.913 336.927,348.719 333.864,349.508 332.937 C 349.733 332.673,350.107 332.260,350.340 332.020 C 350.572 331.780,351.136 331.133,351.593 330.583 C 352.434 329.570,353.111 328.775,353.420 328.436 C 353.514 328.334,353.889 327.875,354.253 327.417 C 354.618 326.958,355.000 326.508,355.101 326.417 C 355.203 326.325,355.979 325.350,356.825 324.250 C 357.672 323.150,358.490 322.100,358.643 321.917 C 359.605 320.766,363.383 315.562,365.179 312.917 C 365.676 312.183,366.140 311.558,366.208 311.528 C 366.277 311.497,366.333 311.419,366.333 311.354 C 366.333 311.290,366.877 310.402,367.542 309.382 C 369.797 305.922,372.142 302.125,373.131 300.333 C 373.359 299.921,373.721 299.283,373.937 298.917 C 374.153 298.550,374.381 298.137,374.444 298.000 C 374.507 297.862,374.721 297.487,374.919 297.167 C 375.825 295.699,380.259 287.032,381.526 284.250 C 382.574 281.950,382.986 281.023,383.417 280.000 C 383.646 279.454,384.010 278.612,384.225 278.129 C 384.440 277.646,384.823 276.725,385.077 276.083 C 385.331 275.442,385.601 274.767,385.677 274.583 C 385.952 273.921,386.488 272.554,387.051 271.083 C 387.366 270.258,387.683 269.433,387.754 269.250 C 388.941 266.183,391.437 258.490,392.565 254.417 C 392.718 253.867,392.949 253.042,393.080 252.583 C 393.508 251.082,393.806 249.932,394.009 249.000 C 394.119 248.496,394.312 247.751,394.438 247.345 C 394.564 246.939,394.667 246.447,394.667 246.250 C 394.667 246.053,394.769 245.561,394.895 245.155 C 395.513 243.158,397.268 234.057,397.818 230.000 C 397.911 229.313,398.099 227.925,398.237 226.917 C 399.523 217.465,399.917 211.155,399.917 200.000 C 399.917 188.845,399.523 182.535,398.237 173.083 C 398.099 172.075,397.911 170.688,397.818 170.000 C 397.608 168.452,397.233 166.162,396.911 164.458 C 396.432 161.929,396.134 160.402,395.910 159.333 C 395.785 158.737,395.558 157.650,395.405 156.917 C 395.252 156.183,395.023 155.251,394.897 154.845 C 394.770 154.439,394.667 153.947,394.667 153.750 C 394.667 153.553,394.564 153.061,394.438 152.655 C 394.312 152.249,394.119 151.504,394.009 151.000 C 393.806 150.068,393.508 148.918,393.080 147.417 C 392.949 146.958,392.718 146.133,392.565 145.583 C 391.611 142.141,389.361 135.080,388.502 132.833 C 388.309 132.329,387.940 131.317,387.682 130.583 C 387.424 129.850,387.053 128.856,386.856 128.375 C 386.660 127.894,386.346 127.106,386.158 126.625 C 385.969 126.144,385.753 125.600,385.677 125.417 C 385.601 125.233,385.331 124.558,385.077 123.917 C 384.823 123.275,384.440 122.354,384.225 121.871 C 384.010 121.388,383.644 120.540,383.411 119.988 C 383.179 119.435,382.739 118.443,382.433 117.783 C 382.127 117.123,381.593 115.946,381.245 115.167 C 380.184 112.792,375.847 104.336,374.919 102.833 C 374.721 102.513,374.505 102.138,374.440 102.000 C 374.374 101.862,374.229 101.599,374.118 101.415 C 374.007 101.230,373.376 100.136,372.716 98.984 C 372.055 97.832,371.191 96.370,370.794 95.736 C 370.398 95.102,369.776 94.106,369.412 93.522 C 369.048 92.939,368.206 91.638,367.542 90.632 C 366.877 89.626,366.333 88.767,366.333 88.723 C 366.333 88.679,366.240 88.541,366.125 88.416 C 366.010 88.292,365.671 87.828,365.370 87.387 C 362.867 83.705,360.789 80.833,360.629 80.833 C 360.558 80.833,360.500 80.759,360.500 80.668 C 360.500 80.513,359.903 79.676,358.835 78.333 C 358.579 78.012,357.672 76.850,356.818 75.750 C 355.964 74.650,355.183 73.675,355.083 73.583 C 354.982 73.492,354.605 73.042,354.245 72.583 C 353.885 72.125,353.514 71.667,353.420 71.566 C 353.327 71.465,352.912 70.983,352.500 70.494 C 352.087 70.006,351.416 69.226,351.007 68.761 C 350.598 68.297,350.111 67.738,349.924 67.519 C 349.736 67.301,349.505 67.039,349.410 66.936 C 349.315 66.834,348.490 65.925,347.578 64.917 C 346.665 63.908,345.506 62.661,345.001 62.145 C 344.496 61.629,343.509 60.616,342.807 59.895 C 340.776 57.808,337.074 54.227,335.083 52.423 C 334.075 51.510,333.167 50.685,333.065 50.590 C 332.963 50.495,332.446 50.042,331.917 49.583 C 330.528 48.382,330.463 48.325,329.496 47.500 C 329.013 47.087,328.535 46.673,328.434 46.580 C 328.333 46.486,327.875 46.111,327.417 45.747 C 326.958 45.382,326.546 45.046,326.500 45.000 C 326.297 44.797,323.817 42.824,322.833 42.082 C 322.237 41.633,321.712 41.222,321.667 41.168 C 321.529 41.007,319.502 39.500,319.423 39.500 C 319.383 39.500,319.162 39.325,318.931 39.112 C 318.271 38.500,308.958 32.056,308.333 31.779 C 308.196 31.718,307.521 31.297,306.833 30.844 C 305.147 29.732,299.616 26.414,298.667 25.944 C 298.529 25.876,298.267 25.728,298.083 25.616 C 294.828 23.624,285.122 18.775,280.000 16.583 C 279.231 16.254,278.373 15.881,278.093 15.754 C 277.813 15.627,276.983 15.287,276.250 14.997 C 275.517 14.708,274.767 14.407,274.583 14.328 C 274.400 14.249,273.856 14.031,273.375 13.842 C 272.894 13.654,272.144 13.357,271.708 13.181 C 271.273 13.006,270.092 12.564,269.083 12.199 C 268.075 11.834,266.800 11.371,266.250 11.171 C 265.700 10.970,265.025 10.743,264.750 10.666 C 264.475 10.589,263.725 10.341,263.083 10.115 C 260.606 9.244,255.486 7.693,252.750 6.985 C 252.383 6.891,251.708 6.711,251.250 6.587 C 250.792 6.462,249.929 6.237,249.333 6.086 C 248.737 5.935,247.868 5.704,247.402 5.572 C 246.936 5.441,246.405 5.333,246.223 5.333 C 246.042 5.333,245.561 5.230,245.155 5.103 C 244.749 4.977,243.817 4.748,243.083 4.595 C 242.350 4.442,241.262 4.215,240.667 4.090 C 240.071 3.965,238.946 3.740,238.167 3.590 C 237.387 3.440,236.225 3.214,235.583 3.089 C 234.942 2.963,233.817 2.775,233.083 2.671 C 232.350 2.567,231.112 2.379,230.333 2.253 C 225.813 1.525,219.996 0.889,212.583 0.313 C 210.343 0.139,192.116 -0.061,191.500 0.082 M248.000 122.082 C 253.025 122.318,255.669 122.494,259.500 122.848 C 264.089 123.271,264.829 123.346,265.917 123.497 C 267.535 123.720,270.725 124.130,271.875 124.262 C 273.606 124.460,272.882 124.618,269.708 124.732 C 257.244 125.181,240.006 127.496,225.500 130.669 C 224.629 130.860,223.617 131.077,223.250 131.153 C 221.233 131.568,217.473 132.464,213.457 133.487 C 195.683 138.012,179.884 143.308,163.583 150.205 C 160.742 151.408,157.892 152.629,157.250 152.920 C 156.608 153.211,155.371 153.770,154.500 154.162 C 127.615 166.269,106.390 181.956,102.628 192.500 C 97.930 205.663,111.991 213.518,146.933 217.249 C 149.859 217.562,149.728 217.564,149.584 217.208 C 144.057 203.601,145.348 186.929,153.018 172.865 C 156.946 165.663,164.146 158.334,171.833 153.712 C 183.692 146.583,199.221 144.492,212.333 148.260 C 212.838 148.405,213.475 148.581,213.750 148.652 C 216.467 149.352,222.096 151.847,225.250 153.750 C 234.665 159.431,242.389 168.187,246.421 177.750 C 246.769 178.575,247.098 179.301,247.152 179.363 C 247.206 179.426,248.450 179.375,249.917 179.250 C 271.178 177.443,294.925 177.644,310.250 179.761 C 336.955 183.450,350.334 192.618,350.333 207.228 C 350.333 218.907,342.223 230.487,326.833 240.784 C 323.200 243.215,321.035 244.518,316.583 246.953 C 314.499 248.094,305.839 252.333,305.595 252.333 C 305.556 252.333,304.975 252.586,304.304 252.895 C 303.163 253.420,302.226 253.818,298.792 255.233 C 292.903 257.661,283.994 260.734,274.583 263.584 C 265.359 266.377,252.653 269.399,240.250 271.749 C 239.517 271.888,238.354 272.110,237.667 272.241 C 236.242 272.514,228.798 273.748,227.167 273.983 C 215.664 275.636,209.469 276.358,200.667 277.073 C 184.925 278.351,166.822 278.520,155.083 277.499 C 144.553 276.583,136.739 275.364,129.417 273.497 C 125.467 272.489,125.464 272.478,129.083 272.255 C 134.575 271.916,146.330 270.564,153.083 269.496 C 167.583 267.202,180.927 264.419,193.417 261.084 C 197.101 260.100,201.842 258.790,203.417 258.320 C 204.333 258.047,205.496 257.706,206.000 257.563 C 206.504 257.419,207.217 257.203,207.583 257.081 C 207.950 256.960,209.037 256.622,210.000 256.330 C 215.496 254.663,225.392 251.308,229.667 249.661 C 230.171 249.467,230.771 249.245,231.000 249.167 C 231.229 249.089,231.792 248.879,232.250 248.702 C 232.708 248.524,233.871 248.074,234.833 247.702 C 265.174 235.986,287.746 221.568,293.469 210.250 C 300.192 196.954,288.412 188.506,258.723 185.332 C 255.948 185.036,249.098 184.513,249.019 184.592 C 248.979 184.633,249.140 185.509,249.378 186.541 C 258.236 224.958,224.260 258.605,185.833 249.471 C 172.750 246.361,160.404 237.148,153.522 225.357 L 152.417 223.465 150.583 223.558 C 149.575 223.609,147.737 223.727,146.500 223.819 C 127.972 225.197,107.732 225.166,93.667 223.738 C 62.675 220.592,47.341 210.457,49.906 194.813 C 52.759 177.419,75.983 159.604,116.281 143.900 C 119.373 142.695,126.917 140.055,130.750 138.837 C 131.942 138.458,133.217 138.044,133.583 137.917 C 134.219 137.696,140.551 135.800,141.250 135.621 C 141.433 135.574,142.971 135.146,144.667 134.670 C 153.050 132.316,162.088 130.192,171.667 128.324 C 174.004 127.869,176.479 127.386,177.167 127.252 C 178.552 126.981,185.556 125.850,188.417 125.434 C 194.001 124.623,197.286 124.209,203.667 123.512 C 216.997 122.055,235.056 121.473,248.000 122.082 " stroke="none" fill="#1c4b8b" fill-rule="evenodd"></path><path id="path2" d="M228.125 121.954 C 228.423 121.991,228.910 121.991,229.208 121.954 C 229.506 121.917,229.262 121.887,228.667 121.887 C 228.071 121.887,227.827 121.917,228.125 121.954 M242.455 121.954 C 242.750 121.990,243.275 121.991,243.621 121.955 C 243.967 121.919,243.725 121.889,243.083 121.888 C 242.442 121.887,242.159 121.917,242.455 121.954 M247.208 122.115 C 247.369 122.157,247.631 122.157,247.792 122.115 C 247.952 122.073,247.821 122.039,247.500 122.039 C 247.179 122.039,247.048 122.073,247.208 122.115 M220.127 122.285 C 220.334 122.324,220.634 122.323,220.794 122.281 C 220.953 122.239,220.783 122.207,220.417 122.209 C 220.050 122.211,219.920 122.245,220.127 122.285 M250.627 122.285 C 250.834 122.324,251.134 122.323,251.294 122.281 C 251.453 122.239,251.283 122.207,250.917 122.209 C 250.550 122.211,250.420 122.245,250.627 122.285 M212.208 122.782 C 212.369 122.823,212.631 122.823,212.792 122.782 C 212.952 122.740,212.821 122.705,212.500 122.705 C 212.179 122.705,212.048 122.740,212.208 122.782 M272.333 124.500 C 272.131 124.631,272.155 124.662,272.458 124.664 C 272.665 124.666,272.833 124.592,272.833 124.500 C 272.833 124.291,272.656 124.291,272.333 124.500 M268.542 124.782 C 268.702 124.823,268.965 124.823,269.125 124.782 C 269.285 124.740,269.154 124.705,268.833 124.705 C 268.512 124.705,268.381 124.740,268.542 124.782 M197.542 146.456 C 198.069 146.490,198.931 146.490,199.458 146.456 C 199.985 146.423,199.554 146.396,198.500 146.396 C 197.446 146.396,197.015 146.423,197.542 146.456 M160.158 163.125 L 159.583 163.750 160.208 163.176 C 160.790 162.641,160.910 162.500,160.783 162.500 C 160.755 162.500,160.474 162.781,160.158 163.125 M60.996 175.792 L 59.583 177.250 61.042 175.837 C 62.396 174.525,62.576 174.333,62.455 174.333 C 62.430 174.333,61.773 174.990,60.996 175.792 M272.214 178.123 C 272.745 178.157,273.570 178.156,274.048 178.123 C 274.526 178.089,274.092 178.062,273.083 178.062 C 272.075 178.063,271.684 178.090,272.214 178.123 M286.792 178.123 C 287.273 178.157,288.060 178.157,288.542 178.123 C 289.023 178.089,288.629 178.062,287.667 178.062 C 286.704 178.062,286.310 178.089,286.792 178.123 M266.875 178.282 C 267.035 178.323,267.298 178.323,267.458 178.282 C 267.619 178.240,267.487 178.205,267.167 178.205 C 266.846 178.205,266.715 178.240,266.875 178.282 M259.711 178.620 C 259.964 178.658,260.339 178.657,260.544 178.617 C 260.749 178.578,260.542 178.546,260.083 178.548 C 259.625 178.549,259.457 178.581,259.711 178.620 M298.294 178.618 C 298.501 178.658,298.801 178.656,298.960 178.615 C 299.120 178.573,298.950 178.540,298.583 178.542 C 298.217 178.544,298.086 178.578,298.294 178.618 M251.960 179.118 C 252.168 179.158,252.468 179.156,252.627 179.115 C 252.786 179.073,252.617 179.040,252.250 179.042 C 251.883 179.044,251.753 179.078,251.960 179.118 M304.208 179.115 C 304.369 179.157,304.631 179.157,304.792 179.115 C 304.952 179.073,304.821 179.039,304.500 179.039 C 304.179 179.039,304.048 179.073,304.208 179.115 M111.406 180.708 L 110.917 181.250 111.458 180.760 C 111.963 180.304,112.077 180.167,111.948 180.167 C 111.919 180.167,111.675 180.410,111.406 180.708 M108.406 183.708 L 107.917 184.250 108.458 183.760 C 108.756 183.491,109.000 183.248,109.000 183.219 C 109.000 183.090,108.862 183.203,108.406 183.708 M254.208 184.948 C 254.369 184.990,254.631 184.990,254.792 184.948 C 254.952 184.906,254.821 184.872,254.500 184.872 C 254.179 184.872,254.048 184.906,254.208 184.948 M291.833 195.750 C 292.144 196.071,292.436 196.333,292.482 196.333 C 292.528 196.333,292.311 196.071,292.000 195.750 C 291.689 195.429,291.397 195.167,291.351 195.167 C 291.305 195.167,291.522 195.429,291.833 195.750 M250.712 196.333 C 250.712 196.746,250.745 196.915,250.784 196.708 C 250.824 196.502,250.824 196.165,250.784 195.958 C 250.745 195.752,250.712 195.921,250.712 196.333 M49.705 196.333 C 49.705 196.654,49.740 196.785,49.782 196.625 C 49.823 196.465,49.823 196.202,49.782 196.042 C 49.740 195.881,49.705 196.012,49.705 196.333 M146.229 198.583 C 146.229 199.592,146.257 199.983,146.290 199.452 C 146.323 198.922,146.323 198.097,146.289 197.619 C 146.256 197.141,146.229 197.575,146.229 198.583 M250.712 201.167 C 250.712 201.579,250.745 201.748,250.784 201.542 C 250.824 201.335,250.824 200.998,250.784 200.792 C 250.745 200.585,250.712 200.754,250.712 201.167 M105.333 205.052 C 105.333 205.081,105.577 205.325,105.875 205.594 L 106.417 206.083 105.927 205.542 C 105.471 205.037,105.333 204.923,105.333 205.052 M288.573 216.875 L 288.083 217.417 288.625 216.927 C 289.130 216.471,289.243 216.333,289.115 216.333 C 289.086 216.333,288.842 216.577,288.573 216.875 M286.667 218.750 C 286.262 219.162,285.968 219.500,286.014 219.500 C 286.060 219.500,286.428 219.162,286.833 218.750 C 287.238 218.338,287.532 218.000,287.486 218.000 C 287.440 218.000,287.072 218.338,286.667 218.750 M151.627 223.451 C 151.834 223.491,152.134 223.490,152.294 223.448 C 152.453 223.406,152.283 223.374,151.917 223.375 C 151.550 223.377,151.420 223.411,151.627 223.451 M144.627 223.951 C 144.834 223.991,145.134 223.990,145.294 223.948 C 145.453 223.906,145.283 223.874,144.917 223.875 C 144.550 223.877,144.420 223.911,144.627 223.951 M139.042 224.282 C 139.202 224.323,139.465 224.323,139.625 224.282 C 139.785 224.240,139.654 224.205,139.333 224.205 C 139.012 224.205,138.881 224.240,139.042 224.282 M102.294 224.451 C 102.501 224.491,102.801 224.490,102.960 224.448 C 103.120 224.406,102.950 224.374,102.583 224.375 C 102.217 224.377,102.086 224.411,102.294 224.451 M135.377 224.453 C 135.631 224.491,136.006 224.490,136.211 224.451 C 136.416 224.411,136.208 224.380,135.750 224.381 C 135.292 224.382,135.124 224.415,135.377 224.453 M105.542 224.615 C 105.702 224.657,105.965 224.657,106.125 224.615 C 106.285 224.573,106.154 224.539,105.833 224.539 C 105.513 224.539,105.381 224.573,105.542 224.615 M131.542 224.615 C 131.702 224.657,131.965 224.657,132.125 224.615 C 132.285 224.573,132.154 224.539,131.833 224.539 C 131.512 224.539,131.381 224.573,131.542 224.615 M109.625 224.787 C 109.923 224.824,110.410 224.824,110.708 224.787 C 111.006 224.750,110.763 224.720,110.167 224.720 C 109.571 224.720,109.327 224.750,109.625 224.787 M126.208 224.788 C 126.552 224.824,127.115 224.824,127.458 224.788 C 127.802 224.752,127.521 224.723,126.833 224.723 C 126.146 224.723,125.865 224.752,126.208 224.788 M152.208 277.282 C 152.369 277.323,152.631 277.323,152.792 277.282 C 152.952 277.240,152.821 277.205,152.500 277.205 C 152.179 277.205,152.048 277.240,152.208 277.282 M197.960 277.285 C 198.168 277.324,198.468 277.323,198.627 277.281 C 198.786 277.239,198.617 277.207,198.250 277.209 C 197.883 277.211,197.753 277.245,197.960 277.285 M158.958 277.784 C 159.165 277.824,159.502 277.824,159.708 277.784 C 159.915 277.745,159.746 277.712,159.333 277.712 C 158.921 277.712,158.752 277.745,158.958 277.784 M189.792 277.784 C 189.998 277.824,190.335 277.824,190.542 277.784 C 190.748 277.745,190.579 277.712,190.167 277.712 C 189.754 277.712,189.585 277.745,189.792 277.784 M162.542 277.948 C 162.702 277.990,162.965 277.990,163.125 277.948 C 163.285 277.906,163.154 277.872,162.833 277.872 C 162.512 277.872,162.381 277.906,162.542 277.948 M166.542 278.119 C 166.794 278.158,167.206 278.158,167.458 278.119 C 167.710 278.081,167.504 278.050,167.000 278.050 C 166.496 278.050,166.290 278.081,166.542 278.119 M181.295 278.121 C 181.594 278.158,182.044 278.157,182.295 278.119 C 182.545 278.081,182.300 278.051,181.750 278.052 C 181.200 278.053,180.995 278.084,181.295 278.121 " stroke="none" fill="#728cb0" fill-rule="evenodd"></path><path id="path3" d="M233.385 121.958 C 234.835 121.986,237.160 121.986,238.552 121.958 C 239.944 121.930,238.758 121.907,235.917 121.907 C 233.075 121.908,231.936 121.930,233.385 121.958 M225.042 122.115 C 225.202 122.157,225.465 122.157,225.625 122.115 C 225.785 122.073,225.654 122.039,225.333 122.039 C 225.012 122.039,224.881 122.073,225.042 122.115 M218.127 122.451 C 218.334 122.491,218.634 122.490,218.794 122.448 C 218.953 122.406,218.783 122.374,218.417 122.375 C 218.050 122.377,217.920 122.411,218.127 122.451 M252.627 122.451 C 252.834 122.491,253.134 122.490,253.294 122.448 C 253.453 122.406,253.283 122.374,252.917 122.375 C 252.550 122.377,252.420 122.411,252.627 122.451 M267.127 124.785 C 267.334 124.824,267.634 124.823,267.794 124.781 C 267.953 124.739,267.783 124.707,267.417 124.709 C 267.050 124.711,266.920 124.745,267.127 124.785 M235.333 161.750 C 235.831 162.254,236.276 162.667,236.322 162.667 C 236.368 162.667,235.998 162.254,235.500 161.750 C 235.002 161.246,234.557 160.833,234.511 160.833 C 234.466 160.833,234.835 161.246,235.333 161.750 M278.219 178.125 C 279.576 178.153,281.751 178.153,283.052 178.125 C 284.353 178.096,283.242 178.073,280.583 178.074 C 277.925 178.074,276.861 178.097,278.219 178.125 M268.377 178.286 C 268.631 178.325,269.006 178.324,269.211 178.284 C 269.416 178.244,269.208 178.213,268.750 178.214 C 268.292 178.216,268.124 178.248,268.377 178.286 M291.125 178.284 C 291.331 178.324,291.669 178.324,291.875 178.284 C 292.081 178.245,291.912 178.212,291.500 178.212 C 291.087 178.212,290.919 178.245,291.125 178.284 M261.208 178.615 C 261.369 178.657,261.631 178.657,261.792 178.615 C 261.952 178.573,261.821 178.539,261.500 178.539 C 261.179 178.539,261.048 178.573,261.208 178.615 M49.709 197.750 C 49.711 198.117,49.745 198.247,49.785 198.040 C 49.824 197.832,49.823 197.532,49.781 197.373 C 49.739 197.214,49.707 197.383,49.709 197.750 M250.718 198.750 C 250.719 199.300,250.750 199.505,250.787 199.205 C 250.825 198.906,250.824 198.456,250.786 198.205 C 250.748 197.955,250.717 198.200,250.718 198.750 M295.383 203.500 C 295.383 204.004,295.415 204.210,295.453 203.958 C 295.491 203.706,295.491 203.294,295.453 203.042 C 295.415 202.790,295.383 202.996,295.383 203.500 M350.221 207.083 C 350.222 207.725,350.252 207.967,350.288 207.621 C 350.324 207.275,350.324 206.750,350.287 206.455 C 350.250 206.159,350.221 206.442,350.221 207.083 M55.083 210.667 C 55.441 211.033,55.772 211.333,55.818 211.333 C 55.863 211.333,55.608 211.033,55.250 210.667 C 54.892 210.300,54.562 210.000,54.516 210.000 C 54.470 210.000,54.725 210.300,55.083 210.667 M146.208 223.782 C 146.369 223.823,146.631 223.823,146.792 223.782 C 146.952 223.740,146.821 223.705,146.500 223.705 C 146.179 223.705,146.048 223.740,146.208 223.782 M100.542 224.282 C 100.702 224.323,100.965 224.323,101.125 224.282 C 101.285 224.240,101.154 224.205,100.833 224.205 C 100.513 224.205,100.381 224.240,100.542 224.282 M137.627 224.285 C 137.834 224.324,138.134 224.323,138.294 224.281 C 138.453 224.239,138.283 224.207,137.917 224.209 C 137.550 224.211,137.420 224.245,137.627 224.285 M130.208 224.615 C 130.369 224.657,130.631 224.657,130.792 224.615 C 130.952 224.573,130.821 224.539,130.500 224.539 C 130.179 224.539,130.048 224.573,130.208 224.615 M115.114 224.791 C 116.872 224.818,119.797 224.818,121.614 224.791 C 123.430 224.765,121.992 224.742,118.417 224.742 C 114.842 224.742,113.355 224.764,115.114 224.791 M338.661 231.125 L 337.750 232.083 338.708 231.172 C 339.235 230.671,339.667 230.240,339.667 230.214 C 339.667 230.090,339.507 230.235,338.661 231.125 M196.708 250.948 C 196.869 250.990,197.131 250.990,197.292 250.948 C 197.452 250.906,197.321 250.872,197.000 250.872 C 196.679 250.872,196.548 250.906,196.708 250.948 M199.708 250.948 C 199.869 250.990,200.131 250.990,200.292 250.948 C 200.452 250.906,200.321 250.872,200.000 250.872 C 199.679 250.872,199.548 250.906,199.708 250.948 M127.875 272.448 C 128.035 272.490,128.298 272.490,128.458 272.448 C 128.619 272.406,128.487 272.372,128.167 272.372 C 127.846 272.372,127.715 272.406,127.875 272.448 M157.208 277.615 C 157.369 277.657,157.631 277.657,157.792 277.615 C 157.952 277.573,157.821 277.539,157.500 277.539 C 157.179 277.539,157.048 277.573,157.208 277.615 M191.960 277.618 C 192.168 277.658,192.468 277.656,192.627 277.615 C 192.786 277.573,192.617 277.540,192.250 277.542 C 191.883 277.544,191.753 277.578,191.960 277.618 M171.375 278.125 C 173.002 278.152,175.665 278.152,177.292 278.125 C 178.919 278.097,177.588 278.075,174.333 278.075 C 171.079 278.075,169.748 278.097,171.375 278.125 " stroke="none" fill="#8cacce" fill-rule="evenodd"></path><path id="path4" d="M229.960 121.951 C 230.168 121.991,230.468 121.990,230.627 121.948 C 230.786 121.906,230.617 121.874,230.250 121.875 C 229.883 121.877,229.753 121.911,229.960 121.951 M241.208 121.948 C 241.369 121.990,241.631 121.990,241.792 121.948 C 241.952 121.906,241.821 121.872,241.500 121.872 C 241.179 121.872,241.048 121.906,241.208 121.948 M275.042 178.115 C 275.202 178.157,275.465 178.157,275.625 178.115 C 275.785 178.073,275.654 178.039,275.333 178.039 C 275.012 178.039,274.881 178.073,275.042 178.115 " stroke="none" fill="#87a2cc" fill-rule="evenodd"></path></g></svg>